<svg width="30" height="30" viewBox="0 0 30 30" fill="none" xmlns="http://www.w3.org/2000/svg">
    <path d="M25.5755 0H4.42233C1.99005 0 0 1.99005 0 4.42233V25.5777C0 28.01 1.99005 30 4.42233 30H25.5777C28.01 30 30 28.01 30 25.5777V4.42233C29.9978 1.99005 28.0099 0 25.5755 0ZM25.2913 16.0122H21.7313V28.8922H16.4046V16.0122H13.7402V11.5721H16.4046V8.90768C16.4046 5.28579 17.9082 3.13101 22.1868 3.13101H25.7435V7.56993H23.5191C21.8563 7.56993 21.7457 8.19237 21.7457 9.34992L21.7313 11.5721H25.7612L25.2913 16.0122Z" fill="#699BF7"/>
</svg>
