<svg width="27" height="30" viewBox="0 0 27 30" fill="none" xmlns="http://www.w3.org/2000/svg">
    <path d="M19.6756 10.8291C21.6126 12.213 23.9857 13.0274 26.5486 13.0274V8.09809C26.0636 8.09819 25.5798 8.04759 25.1052 7.94709V11.8271C22.5425 11.8271 20.1697 11.0129 18.2322 9.62904V19.6884C18.2322 24.7206 14.1507 28.7997 9.11626 28.7997C7.23778 28.7997 5.49175 28.2321 4.04138 27.2586C5.69678 28.9504 8.00533 29.9998 10.5593 29.9998C15.5941 29.9998 19.6758 25.9207 19.6758 20.8883V10.8291H19.6756ZM21.4562 5.85602C20.4662 4.77506 19.8162 3.37811 19.6756 1.83368V1.19971H18.3077C18.6521 3.1626 19.8266 4.83957 21.4562 5.85602ZM7.22565 23.3971C6.67256 22.6723 6.37359 21.7856 6.37493 20.8739C6.37493 18.5724 8.24179 16.7062 10.5451 16.7062C10.9742 16.706 11.4009 16.7719 11.81 16.9015V11.862C11.3319 11.7965 10.8494 11.7687 10.3672 11.7789V15.7014C9.95788 15.5717 9.53101 15.5058 9.10164 15.5062C6.79848 15.5062 4.93172 17.3721 4.93172 19.6739C4.93172 21.3015 5.86479 22.7106 7.22565 23.3971Z" fill="#FF004F"/>
    <path d="M18.2323 9.62894C20.1699 11.0128 22.5424 11.827 25.1052 11.827V7.94699C23.6747 7.6424 22.4083 6.89528 21.4562 5.85602C19.8264 4.83946 18.6521 3.1625 18.3078 1.19971H14.715V20.8881C14.7068 23.1833 12.8432 25.0418 10.5449 25.0418C9.19064 25.0418 7.98742 24.3966 7.22547 23.397C5.86481 22.7106 4.93164 21.3014 4.93164 19.674C4.93164 17.3724 6.7984 15.5063 9.10156 15.5063C9.54284 15.5063 9.96815 15.575 10.3671 15.7015V11.779C5.42104 11.8812 1.4433 15.9204 1.4433 20.8882C1.4433 23.368 2.43382 25.6161 4.04151 27.2588C5.49188 28.2321 7.23781 28.7999 9.11639 28.7999C14.1509 28.7999 18.2324 24.7205 18.2324 19.6884V9.62904L18.2323 9.62894Z" fill="black"/>
    <path d="M25.1053 7.94719V6.89828C23.8152 6.90024 22.5507 6.53916 21.4562 5.85632C22.425 6.91644 23.7008 7.6475 25.1053 7.9474V7.94719ZM18.3077 1.19991C18.2749 1.01236 18.2497 0.823561 18.2322 0.633971V0H13.2714V19.6886C13.2635 21.9836 11.3999 23.8421 9.10147 23.8421C8.44989 23.8431 7.80723 23.6908 7.22538 23.3975C7.98733 24.3969 9.19055 25.042 10.5448 25.042C12.843 25.042 14.7068 23.1838 14.7149 20.8885V1.20001H18.3077V1.19991ZM10.3673 11.7792V10.6624C9.9528 10.6057 9.53489 10.5774 9.11651 10.5776C4.08145 10.5776 0 14.6568 0 19.6886C0 22.8433 1.60406 25.6235 4.04163 27.2589C2.43394 25.6163 1.44342 23.3681 1.44342 20.8884C1.44342 15.9207 5.42106 11.8814 10.3673 11.7792Z" fill="#00F2EA"/>
</svg>
